<?xml version="1.0"?>
<svg width="32" height="32" xmlns="http://www.w3.org/2000/svg" class="nc-icon glyph">

 <g>
  <title>background</title>
  <rect fill="none" id="canvas_background" height="402" width="582" y="-1" x="-1"/>
 </g>
 <g>
  <title>Layer 1</title>
  <g id="svg_1">
   <path stroke-width="0" id="svg_2" d="m17.3375,16l10.300001,-10.3c0.4,-0.4 0.4,-1 0,-1.4s-1,-0.4 -1.400002,0l-10.299999,10.3l-10.3,-10.3c-0.4,-0.4 -1,-0.4 -1.4,0s-0.4,1 0,1.4l10.3,10.3l-10.3,10.299999c-0.4,0.400002 -0.4,1 0,1.400002c0.2,0.199999 0.4,0.299999 0.7,0.299999s0.5,-0.1 0.7,-0.299999l10.3,-10.300001l10.299999,10.300001c0.200001,0.199999 0.5,0.299999 0.700001,0.299999s0.5,-0.1 0.700001,-0.299999c0.4,-0.400002 0.4,-1 0,-1.400002l-10.300001,-10.299999z" fill="#ffffff"/>
  </g>
 </g>
</svg>